<svg width="128" height="128" viewBox="0 0 128 128" fill="none" xmlns="http://www.w3.org/2000/svg">
<path d="M0 64C0 28.6538 28.6538 0 64 0C99.3462 0 128 28.6538 128 64C128 99.3462 99.3462 128 64 128C28.6538 128 0 99.3462 0 64Z" fill="url(#paint0_linear_4_8)"/>
<path d="M66.8292 89.34C64.3018 92.8611 59.3986 93.6666 55.8775 91.1393L30.3755 72.8345C26.8544 70.3071 26.0488 65.4039 28.5762 61.8828C31.1036 58.3617 36.0068 57.5561 39.5279 60.0835L65.0299 78.3883C68.551 80.9156 69.3565 85.8189 66.8292 89.34Z" fill="white"/>
<path d="M68.4546 73.9764C64.9335 71.449 64.1279 66.5458 66.6553 63.0247C69.1827 59.5036 74.0859 58.698 77.607 61.2254C81.1281 63.7528 81.9337 68.656 79.4063 72.1771C76.8789 75.6982 71.9757 76.5038 68.4546 73.9764Z" fill="white"/>
<path d="M82.5289 57.1333C79.6741 55.0842 79.0209 51.1086 81.0701 48.2538C83.1192 45.3989 87.0948 44.7457 89.9496 46.7949C92.8045 48.8441 93.4577 52.8196 91.4085 55.6745C89.3593 58.5293 85.3838 59.1825 82.5289 57.1333Z" fill="white"/>
<path d="M94.8378 42.6785C92.6678 41.1209 92.1713 38.0991 93.7289 35.9291C95.2865 33.7591 98.3083 33.2627 100.478 34.8202C102.648 36.3778 103.145 39.3996 101.587 41.5696C100.03 43.7396 97.0078 44.2361 94.8378 42.6785Z" fill="white"/>
<defs>
<linearGradient id="paint0_linear_4_8" x1="128" y1="0" x2="0" y2="128" gradientUnits="userSpaceOnUse">
<stop stop-color="#563CF5"/>
<stop offset="1" stop-color="#19133F"/>
</linearGradient>
</defs>
</svg>
